# AST/ASF file generated using VICON BodyLanguage
# -----------------------------------------------
:version 1.10
:name VICON
:units
  mass 1.0
  length 0.45
  angle deg
:documentation
   .ast/.asf automatically generated from VICON data using
   VICON BodyBuilder and BodyLanguage model FoxedUp or BRILLIANT.MOD
:root
   order TX TY TZ RX RY RZ
   axis XYZ
   position 0 0 0  
   orientation 0 0 0 
:bonedata
  begin
     id 1 
     name lhipjoint
     direction 0.547975 -0.797114 0.253638 
     length 2.36201 
     axis 0 0 0  XYZ
  end
  begin
     id 2 
     name lfemur
     direction 0.34202 -0.939693 0  
     length 7.69075  
     axis 0 0 20  XYZ
    dof rx ry rz
    limits (-160.0 20.0)
           (-70.0 70.0)
           (-60.0 70.0)
  end
  begin
     id 3 
     name ltibia
     direction 0.34202 -0.939693 0   
     length 7.91399   
     axis 0 0 20   XYZ
    dof rx
    limits (-10.0 170.0)
  end
  begin
     id 4 
     name lfoot
     direction 0.0705293 -0.193778 0.978507   
     length 2.13618   
     axis -90 7.62852e-016 20   XYZ
    dof rx rz
    limits (-45.0 90.0)
           (-70.0 20.0)
  end
  begin
     id 5 
     name ltoes
     direction 1.53592e-011 -4.21925e-011 1   
     length 1.07518   
     axis -90 7.62852e-016 20   XYZ
    dof rx
    limits (-90.0 20.0)
  end
  begin
     id 6 
     name rhipjoint
     direction -0.57 -0.782963 0.249136   
     length 2.4047  
     axis 0 0 0  XYZ 
  end
  begin
     id 7 
     name rfemur
     direction -0.34202 -0.939693 0   
     length 7.51486   
     axis 0 0 -20   XYZ
    dof rx ry rz
    limits (-160.0 20.0)
           (-70.0 70.0)
           (-70.0 60.0)
  end
  begin
     id 8 
     name rtibia
     direction -0.34202 -0.939693 0   
     length 8.08317   
     axis 0 0 -20   XYZ
    dof rx
    limits (-10.0 170.0)
 end
 begin
     id 9 
     name rfoot
     direction -0.104954 -0.281256 0.953876   
     length 2.30343  
     axis -90 -7.62852e-016 -20   XYZ
    dof rx rz
    limits (-45.0 90.0)
           (-20.0 70.0)
  end
  begin
     id 10 
     name rtoes
     direction -1.53556e-011 -4.21922e-011 1   
     length 1.14803   
     axis -90 -7.62852e-016 -20   XYZ
    dof rx
    limits (-90.0 20.0)
  end
  begin
     id 11 
     name lowerback
     direction -0.0152855 0.99353 -0.11254   
     length 2.05311   
     axis 0 0 0   XYZ
    dof rx ry rz
    limits (-20.0 45.0)
           (-30.0 30.0)
           (-30.0 30.0)
  end
  begin
     id 12 
     name upperback
     direction -0.00157509 0.999443 -0.033332   
     length 2.06353   
     axis 0 0 0   XYZ
    dof rx ry rz
    limits (-20.0 45.0)
           (-30.0 30.0)
           (-30.0 30.0)
  end
  begin
     id 13 
     name thorax
     direction 0.00577788 0.999804 0.0189484   
     length 2.08472   
     axis 0 0 0   XYZ
    dof rx ry rz
    limits (-20.0 45.0)
           (-30.0 30.0)
           (-30.0 30.0)
  end
  begin
     id 14 
     name lowerneck
     direction -1.09301e-005 0.994719 0.10264   
     length 1.76249   
     axis 0 0 0   XYZ
    dof rx ry rz
    limits (-20.0 45.0)
           (-30.0 30.0)
           (-30.0 30.0)
  end
  begin
     id 15 
     name upperneck
     direction 0.0495018 0.988526 -0.142706   
     length 1.77897   
     axis 0 0 0   XYZ
    dof rx ry rz
    limits (-20.0 45.0)
           (-30.0 30.0)
           (-30.0 30.0)
  end
  begin
     id 16
     name head
     direction 0.0142736 0.998114 -0.0597101  
     length 1.78934  
     axis 0 0 0   XYZ
    dof rx ry rz
    limits (-20.0 45.0)
           (-30.0 30.0)
           (-30.0 30.0)
  end
  begin
     id 17 
     name lclavicle
     direction 0.918111 0.396107 -0.0130883  
     length 3.37276  
     axis 0 0 0   XYZ
    dof ry rz
    limits (-20.0 10.0)
           (0.0 20.0)
  end
  begin
     id 18 
     name lhumerus
     direction 1 -4.48975e-011 -3.26108e-027   
     length 5.34298   
     axis 180 -30 -90   XYZ
    dof rx ry rz
    limits (-60.0 90.0)
           (-90.0 90.0)
           (-90.0 90.0)
  end
  begin
     id 19
     name lradius
     direction 1 -4.48964e-011 -8.84413e-028   
     length 3.67262   
     axis 180 -30 -90   XYZ
    dof rx
    limits (-10.0 170.0)
  end
  begin
     id 20
     name lwrist
     direction 1 -4.48991e-011 -1.24264e-027   
     length 1.83631   
     axis -2.17013e-015 90 90   XYZ
    dof ry
    limits (-180.0 0.0)
 end
  begin
     id 21 
     name lhand
     direction 1 -4.48855e-011 -2.48528e-027   
     length 0.599298   
     axis 1.58582e-015 90 90   XYZ
    dof rx rz
    limits (-90.0 90.0)
           (-45.0 45.0)
  end
  begin
     id 22 
     name lfingers
     direction 1 -4.48811e-011 -4.97056e-027   
     length 0.48317   
     axis 3.17164e-015 90 90   XYZ
    dof rx
    limits (0.0 90.0)
  end
  begin
     id 23
     name lthumb
     direction 0.707107 -6.34882e-011 0.707107   
     length 0.693738   
     axis -90 45 2.85299e-015   XYZ
    dof rx rz
    limits (-45.0 45.0)
           (-45.0 45.0)
  end
  begin
     id 24 
     name rclavicle
     direction -0.920511 0.384752 -0.0680135   
     length 3.43787  
     axis 0 0 0   XYZ 
    dof ry rz
    limits (-10.0 20.0)
           (-20.0 0.0)
  end
  begin
     id 25 
     name rhumerus
     direction -0.999976 -0.00330524 0.00603274  
     length 5.5498   
     axis 180 30 90   XYZ
    dof rx ry rz
    limits (-90.0 60.0)
           (-90.0 90.0)
           (-90.0 90.0)
  end
  begin
     id 26 
     name rradius
     direction -1 -4.48967e-011 8.62438e-027   
     length 3.69401   
     axis 180 30 90   XYZ
    dof rx
    limits (-10.0 170.0)
  end
  begin
     id 27 
     name rwrist
     direction -1 -4.4897e-011 9.54866e-027   
     length 1.84701   
     axis -7.69462e-015 -90 -90   XYZ
    dof ry
    limits (-180.0 0.0)
  end
  begin
     id 28
     name rhand
     direction -1 -4.48982e-011 1.90973e-026   
     length 0.638113   
     axis -1.21857e-014 -90 -90   XYZ
    dof rx rz
    limits (-90.0 90.0)
           (-45.0 45.0)
  end
  begin
     id 29
     name rfingers
     direction -1 -4.48936e-011 3.81946e-026   
     length 0.514463   
     axis -2.43714e-014 -90 -90   XYZ
    dof rx
    limits (0.0 90.0)
  end
  begin
     id 30
     name rthumb
     direction -0.707107 -6.34942e-011 0.707107   
     length 0.738669   
     axis -90 -45 -2.85299e-015   XYZ
    dof rx rz
    limits (-45.0 45.0)
           (-45.0 45.0)
  end
:hierarchy
  begin
    root lhipjoint rhipjoint lowerback
    lhipjoint lfemur
    lfemur ltibia
    ltibia lfoot
    lfoot ltoes
    rhipjoint rfemur
    rfemur rtibia
    rtibia rfoot
    rfoot rtoes
    lowerback upperback
    upperback thorax
    thorax lowerneck lclavicle rclavicle
    lowerneck upperneck
    upperneck head
    lclavicle lhumerus
    lhumerus lradius
    lradius lwrist
    lwrist lhand lthumb
    lhand lfingers
    rclavicle rhumerus
    rhumerus rradius
    rradius rwrist
    rwrist rhand rthumb
    rhand rfingers
  end

#!OML:ASF F:\twosubjects\two\Thursday\Session 1\Rory.ASF
:FULLY-SPECIFIED
:DEGREES
50
root 7.41471 10.8024 10.6788 171.705 1.36002 172.128
lowerback 41.1948 -0.448083 -7.85105
upperback 12.7883 1.67771 -5.15999
thorax -5.1594 3.17092 -2.29929
lowerneck -14.5169 -2.77525 -2.48448
upperneck -9.81388 -4.53596 7.1204
head -0.453573 -2.80919 2.52915
rclavicle 3.71727e-014 7.15625e-015
rhumerus 13.2491 27.6283 -75.829
rradius 89.241
rwrist 10.5144
rhand -32.5507 29.462
rfingers 7.12502
rthumb -5.78041 -0.439153
lclavicle 3.71727e-014 7.15625e-015
lhumerus 16.6093 -30.7644 61.1768
lradius 87.556
lwrist -29.6902
lhand -5.29259 18.4205
lfingers 7.12502
lthumb 20.5123 47.3569
rfemur -83.7909 -18.6908 1.76014
rtibia 101.512
rfoot -3.247 -3.56755
rtoes 0.865661
lfemur -74.8386 25.0236 -12.5356
ltibia 95.0187
lfoot -4.73754 -16.1837
ltoes -19.0861
51
root 7.41258 10.7968 10.6396 171.803 1.54752 172.879
lowerback 41.2835 -0.423758 -7.41156
upperback 12.614 1.74065 -4.72051
thorax -5.41262 3.13666 -2.09018
lowerneck -13.7616 -2.77345 -2.59082
upperneck -10.217 -4.50267 6.91019
head -0.71185 -2.80359 2.50003
rclavicle -8.54774e-015 -9.30312e-014
rhumerus 12.4083 27.5936 -75.7974
rradius 90.2849
rwrist 10.9881
rhand -31.7173 28.8837
rfingers 7.12502
rthumb -4.97581 -1.03784
lclavicle -8.54774e-015 -9.30312e-014
lhumerus 15.4005 -30.3686 61.6127
lradius 88.7088
lwrist -29.0993
lhand -2.34187 19.1591
lfingers 7.12502
lthumb 23.3455 47.7635
rfemur -83.6185 -18.436 2.44307
rtibia 101.61
rfoot -3.73406 -3.55905
rtoes 2.46087
lfemur -75.0062 25.502 -11.7114
ltibia 95.2017
lfoot -4.24061 -16.6433
ltoes -14.7153
52
root 7.41152 10.7992 10.6071 172.128 1.63686 172.874
lowerback 41.1826 -0.386255 -7.46508
upperback 12.5862 1.73743 -4.65776
thorax -5.41432 3.11347 -1.99054
lowerneck -14.154 -2.88301 -2.56606
upperneck -10.2606 -4.69115 6.90446
head -0.655244 -2.91265 2.47898
rclavicle 3.37934e-015 3.04141e-014
rhumerus 12.1984 27.212 -75.5375
rradius 91.3211
rwrist 11.4011
rhand -30.9012 29.0028
rfingers 7.12502
rthumb -4.18772 -0.935745
lclavicle 3.37934e-015 3.04141e-014
lhumerus 14.8969 -30.1144 61.2728
lradius 89.9142
lwrist -28.7513
lhand -0.472419 20.5182
lfingers 7.12502
lthumb 25.1378 48.8832
rfemur -83.9187 -18.6172 2.53446
rtibia 101.723
rfoot -3.91298 -3.1877
rtoes 4.98359
lfemur -75.3199 25.7994 -11.8192
ltibia 95.3072
lfoot -3.82887 -16.8798
ltoes -8.99
53
root 7.41648 10.805 10.5804 172.845 1.77629 172.238
lowerback 40.6322 -0.124555 -8.11443
upperback 12.1766 1.57266 -4.6684
thorax -5.68585 2.93046 -1.60109
lowerneck -12.9779 -2.87175 -2.81303
upperneck -10.8055 -4.60608 6.97394
head -1.01864 -2.87885 2.58505
rclavicle -3.37934e-014 1.39149e-015
rhumerus 11.2631 27.2487 -75.5171
rradius 92.5451
rwrist 11.8872
rhand -30.8917 29.553
rfingers 7.12502
rthumb -4.17856 -0.385769
lclavicle -3.37934e-014 1.39149e-015
lhumerus 13.5495 -29.9227 61.2565
lradius 91.2417
lwrist -28.6566
lhand 1.1557 21.7585
lfingers 7.12502
lthumb 26.6969 49.8955
rfemur -84.9053 -18.9498 2.24771
rtibia 101.815
rfoot -3.81483 -2.81083
rtoes 6.20178
lfemur -75.9955 25.9797 -12.7034
ltibia 95.3744
lfoot -3.49298 -16.8077
ltoes -4.64224
54
root 7.4211 10.8003 10.5479 173.519 1.9116 172.172
lowerback 39.9297 -0.383255 -8.72441
upperback 12.5757 1.15475 -4.41701
thorax -4.99435 2.68826 -0.8118
lowerneck -15.4143 -2.62037 -4.04986
upperneck -10.1831 -4.22685 7.13921
head -0.412302 -2.66281 2.83136
rclavicle -3.63776e-014 -6.36111e-014
rhumerus 12.4539 27.8219 -74.3675
rradius 93.8114
rwrist 12.4848
rhand -30.6055 30.4468
rfingers 7.12502
rthumb -3.90214 0.502813
lclavicle -3.63776e-014 -6.36111e-014
lhumerus 13.3969 -27.7735 61.1362
lradius 92.1695
lwrist -29.1732
lhand 3.02917 22.0274
lfingers 7.12502
lthumb 28.4884 49.878
rfemur -85.8219 -19.2186 2.55657
rtibia 101.967
rfoot -3.81757 -2.65011
rtoes 6.24513
lfemur -76.7882 26.1727 -12.9499
ltibia 95.5437
lfoot -3.42271 -16.714
ltoes -4.2072
